<mxfile host="app.diagrams.net" agent="Mozilla/5.0 (Windows NT 10.0; Win64; x64) AppleWebKit/537.36 (KHTML, like Gecko) Chrome/127.0.0.0 Safari/537.36" version="24.7.5">
  <diagram name="Page-1" id="g8kq78_6EYTuwBO_tOsC">
    <mxGraphModel dx="1613" dy="1753" grid="1" gridSize="10" guides="1" tooltips="1" connect="1" arrows="1" fold="1" page="1" pageScale="1" pageWidth="850" pageHeight="1100" math="0" shadow="0">
      <root>
        <mxCell id="0" />
        <mxCell id="1" parent="0" />
        <mxCell id="tQie9-XVmVDXD76uz_uQ-1" value="SeedSphere Contract on CELO" style="shape=note;whiteSpace=wrap;html=1;backgroundOutline=1;darkOpacity=0.05;" vertex="1" parent="1">
          <mxGeometry x="270" y="440" width="90" height="130" as="geometry" />
        </mxCell>
        <mxCell id="tQie9-XVmVDXD76uz_uQ-3" value="" style="verticalLabelPosition=bottom;aspect=fixed;html=1;shape=mxgraph.salesforce.web2;" vertex="1" parent="1">
          <mxGeometry x="340" y="170" width="170" height="170" as="geometry" />
        </mxCell>
        <mxCell id="tQie9-XVmVDXD76uz_uQ-9" value="" style="edgeStyle=orthogonalEdgeStyle;rounded=0;orthogonalLoop=1;jettySize=auto;html=1;entryX=-0.021;entryY=0.573;entryDx=0;entryDy=0;entryPerimeter=0;strokeColor=#FF6666;" edge="1" parent="1" source="tQie9-XVmVDXD76uz_uQ-6" target="tQie9-XVmVDXD76uz_uQ-3">
          <mxGeometry relative="1" as="geometry">
            <mxPoint x="317" y="229" as="targetPoint" />
          </mxGeometry>
        </mxCell>
        <mxCell id="tQie9-XVmVDXD76uz_uQ-6" value="" style="sketch=0;outlineConnect=0;fontColor=#232F3E;gradientColor=none;fillColor=#232F3D;strokeColor=none;dashed=0;verticalLabelPosition=bottom;verticalAlign=top;align=center;html=1;fontSize=12;fontStyle=0;aspect=fixed;pointerEvents=1;shape=mxgraph.aws4.authenticated_user;" vertex="1" parent="1">
          <mxGeometry x="100" y="190" width="78" height="78" as="geometry" />
        </mxCell>
        <mxCell id="tQie9-XVmVDXD76uz_uQ-7" value="" style="verticalLabelPosition=bottom;sketch=0;html=1;fillColor=#282828;strokeColor=none;verticalAlign=top;pointerEvents=1;align=center;shape=mxgraph.cisco_safe.people_places_things_icons.icon1;" vertex="1" parent="1">
          <mxGeometry x="630" y="210" width="80" height="90" as="geometry" />
        </mxCell>
        <mxCell id="tQie9-XVmVDXD76uz_uQ-10" value="" style="shape=flexArrow;endArrow=classic;startArrow=classic;html=1;rounded=0;entryX=0.239;entryY=0.999;entryDx=0;entryDy=0;entryPerimeter=0;exitX=0.5;exitY=0;exitDx=0;exitDy=0;exitPerimeter=0;" edge="1" parent="1" source="tQie9-XVmVDXD76uz_uQ-1" target="tQie9-XVmVDXD76uz_uQ-3">
          <mxGeometry width="100" height="100" relative="1" as="geometry">
            <mxPoint x="600" y="430" as="sourcePoint" />
            <mxPoint x="700" y="330" as="targetPoint" />
          </mxGeometry>
        </mxCell>
        <mxCell id="tQie9-XVmVDXD76uz_uQ-11" value="SeedSphere Contract on OP Stack" style="shape=note;whiteSpace=wrap;html=1;backgroundOutline=1;darkOpacity=0.05;" vertex="1" parent="1">
          <mxGeometry x="490" y="440" width="90" height="130" as="geometry" />
        </mxCell>
        <mxCell id="tQie9-XVmVDXD76uz_uQ-12" value="" style="shape=flexArrow;endArrow=classic;startArrow=classic;html=1;rounded=0;entryX=0.79;entryY=1.021;entryDx=0;entryDy=0;entryPerimeter=0;exitX=0;exitY=0;exitDx=30;exitDy=0;exitPerimeter=0;" edge="1" parent="1" source="tQie9-XVmVDXD76uz_uQ-11" target="tQie9-XVmVDXD76uz_uQ-3">
          <mxGeometry width="100" height="100" relative="1" as="geometry">
            <mxPoint x="490" y="420" as="sourcePoint" />
            <mxPoint x="540.8499999999999" y="299.85" as="targetPoint" />
            <Array as="points" />
          </mxGeometry>
        </mxCell>
        <mxCell id="tQie9-XVmVDXD76uz_uQ-13" value="" style="endArrow=classic;html=1;rounded=0;entryX=1.02;entryY=0.509;entryDx=0;entryDy=0;entryPerimeter=0;exitX=0;exitY=0.515;exitDx=0;exitDy=0;exitPerimeter=0;strokeColor=#00FF00;" edge="1" parent="1" source="tQie9-XVmVDXD76uz_uQ-7" target="tQie9-XVmVDXD76uz_uQ-3">
          <mxGeometry width="50" height="50" relative="1" as="geometry">
            <mxPoint x="630" y="410" as="sourcePoint" />
            <mxPoint x="680" y="360" as="targetPoint" />
          </mxGeometry>
        </mxCell>
        <mxCell id="tQie9-XVmVDXD76uz_uQ-14" value="POOL&amp;nbsp; &amp;nbsp; &amp;nbsp; &amp;nbsp; &amp;nbsp;" style="ellipse;shape=cloud;whiteSpace=wrap;html=1;" vertex="1" parent="1">
          <mxGeometry x="420" y="-60" width="300" height="180" as="geometry" />
        </mxCell>
        <mxCell id="tQie9-XVmVDXD76uz_uQ-15" value="" style="shape=image;html=1;verticalAlign=top;verticalLabelPosition=bottom;labelBackgroundColor=#ffffff;imageAspect=0;aspect=fixed;image=https://cdn2.iconfinder.com/data/icons/perqui/48/ms_project.png" vertex="1" parent="1">
          <mxGeometry x="492" width="20" height="20" as="geometry" />
        </mxCell>
        <mxCell id="tQie9-XVmVDXD76uz_uQ-16" value="" style="shape=image;html=1;verticalAlign=top;verticalLabelPosition=bottom;labelBackgroundColor=#ffffff;imageAspect=0;aspect=fixed;image=https://cdn2.iconfinder.com/data/icons/perqui/48/ms_project.png" vertex="1" parent="1">
          <mxGeometry x="600" y="20" width="20" height="20" as="geometry" />
        </mxCell>
        <mxCell id="tQie9-XVmVDXD76uz_uQ-25" value="" style="shape=image;html=1;verticalAlign=top;verticalLabelPosition=bottom;labelBackgroundColor=#ffffff;imageAspect=0;aspect=fixed;image=https://cdn2.iconfinder.com/data/icons/perqui/48/ms_project.png" vertex="1" parent="1">
          <mxGeometry x="580" y="70" width="20" height="20" as="geometry" />
        </mxCell>
        <mxCell id="tQie9-XVmVDXD76uz_uQ-26" value="" style="shape=image;html=1;verticalAlign=top;verticalLabelPosition=bottom;labelBackgroundColor=#ffffff;imageAspect=0;aspect=fixed;image=https://cdn2.iconfinder.com/data/icons/perqui/48/ms_project.png" vertex="1" parent="1">
          <mxGeometry x="472" y="50" width="20" height="20" as="geometry" />
        </mxCell>
        <mxCell id="tQie9-XVmVDXD76uz_uQ-27" value="" style="shape=image;html=1;verticalAlign=top;verticalLabelPosition=bottom;labelBackgroundColor=#ffffff;imageAspect=0;aspect=fixed;image=https://cdn2.iconfinder.com/data/icons/perqui/48/ms_project.png" vertex="1" parent="1">
          <mxGeometry x="640" y="50" width="20" height="20" as="geometry" />
        </mxCell>
        <mxCell id="tQie9-XVmVDXD76uz_uQ-28" value="" style="shape=image;html=1;verticalAlign=top;verticalLabelPosition=bottom;labelBackgroundColor=#ffffff;imageAspect=0;aspect=fixed;image=https://cdn2.iconfinder.com/data/icons/perqui/48/ms_project.png" vertex="1" parent="1">
          <mxGeometry x="531" y="60" width="20" height="20" as="geometry" />
        </mxCell>
        <mxCell id="tQie9-XVmVDXD76uz_uQ-29" value="" style="shape=image;html=1;verticalAlign=top;verticalLabelPosition=bottom;labelBackgroundColor=#ffffff;imageAspect=0;aspect=fixed;image=https://cdn2.iconfinder.com/data/icons/perqui/48/ms_project.png" vertex="1" parent="1">
          <mxGeometry x="630" y="-10" width="20" height="20" as="geometry" />
        </mxCell>
        <mxCell id="tQie9-XVmVDXD76uz_uQ-30" value="" style="shape=image;html=1;verticalAlign=top;verticalLabelPosition=bottom;labelBackgroundColor=#ffffff;imageAspect=0;aspect=fixed;image=https://cdn2.iconfinder.com/data/icons/perqui/48/ms_project.png" vertex="1" parent="1">
          <mxGeometry x="540" y="-30" width="20" height="20" as="geometry" />
        </mxCell>
        <mxCell id="tQie9-XVmVDXD76uz_uQ-32" value="Create Proposal&amp;nbsp;&lt;div&gt;by adding project&lt;/div&gt;" style="shape=internalStorage;whiteSpace=wrap;html=1;backgroundOutline=1;" vertex="1" parent="1">
          <mxGeometry x="100" y="5" width="150" height="110" as="geometry" />
        </mxCell>
        <mxCell id="tQie9-XVmVDXD76uz_uQ-35" value="" style="shape=image;html=1;verticalAlign=top;verticalLabelPosition=bottom;labelBackgroundColor=#ffffff;imageAspect=0;aspect=fixed;image=https://cdn2.iconfinder.com/data/icons/perqui/48/ms_project.png" vertex="1" parent="1">
          <mxGeometry x="158" y="80" width="20" height="20" as="geometry" />
        </mxCell>
        <mxCell id="tQie9-XVmVDXD76uz_uQ-36" value="" style="sketch=0;pointerEvents=1;shadow=0;dashed=0;html=1;strokeColor=none;fillColor=#505050;labelPosition=center;verticalLabelPosition=bottom;verticalAlign=top;outlineConnect=0;align=center;shape=mxgraph.office.security.token;" vertex="1" parent="1">
          <mxGeometry x="600" y="350" width="41" height="52" as="geometry" />
        </mxCell>
        <mxCell id="tQie9-XVmVDXD76uz_uQ-38" value="" style="endArrow=classic;html=1;rounded=0;entryX=0.31;entryY=0.8;entryDx=0;entryDy=0;entryPerimeter=0;exitX=0.706;exitY=0.018;exitDx=0;exitDy=0;exitPerimeter=0;strokeColor=#00FF00;" edge="1" parent="1" source="tQie9-XVmVDXD76uz_uQ-3" target="tQie9-XVmVDXD76uz_uQ-14">
          <mxGeometry width="50" height="50" relative="1" as="geometry">
            <mxPoint x="740" y="240" as="sourcePoint" />
            <mxPoint x="790" y="190" as="targetPoint" />
          </mxGeometry>
        </mxCell>
        <mxCell id="tQie9-XVmVDXD76uz_uQ-40" value="" style="endArrow=classic;html=1;rounded=0;entryX=0.5;entryY=1;entryDx=0;entryDy=0;strokeColor=#FF6666;" edge="1" parent="1" source="tQie9-XVmVDXD76uz_uQ-3" target="tQie9-XVmVDXD76uz_uQ-32">
          <mxGeometry width="50" height="50" relative="1" as="geometry">
            <mxPoint x="790" y="190" as="sourcePoint" />
            <mxPoint x="740" y="240" as="targetPoint" />
          </mxGeometry>
        </mxCell>
        <mxCell id="tQie9-XVmVDXD76uz_uQ-39" value="" style="endArrow=classic;html=1;rounded=0;entryX=0.959;entryY=0.029;entryDx=0;entryDy=0;entryPerimeter=0;exitX=0.55;exitY=0.95;exitDx=0;exitDy=0;exitPerimeter=0;strokeColor=#3399FF;" edge="1" parent="1" source="tQie9-XVmVDXD76uz_uQ-14" target="tQie9-XVmVDXD76uz_uQ-3">
          <mxGeometry width="50" height="50" relative="1" as="geometry">
            <mxPoint x="740" y="240" as="sourcePoint" />
            <mxPoint x="790" y="190" as="targetPoint" />
          </mxGeometry>
        </mxCell>
        <mxCell id="tQie9-XVmVDXD76uz_uQ-42" value="" style="endArrow=classic;html=1;rounded=0;exitX=0.976;exitY=0;exitDx=0;exitDy=0;exitPerimeter=0;entryX=0.35;entryY=1.011;entryDx=0;entryDy=0;entryPerimeter=0;strokeColor=#00FF00;" edge="1" parent="1" source="tQie9-XVmVDXD76uz_uQ-36" target="tQie9-XVmVDXD76uz_uQ-7">
          <mxGeometry width="50" height="50" relative="1" as="geometry">
            <mxPoint x="740" y="240" as="sourcePoint" />
            <mxPoint x="790" y="190" as="targetPoint" />
          </mxGeometry>
        </mxCell>
        <mxCell id="tQie9-XVmVDXD76uz_uQ-43" value="" style="endArrow=classic;html=1;rounded=0;exitX=1.012;exitY=0.829;exitDx=0;exitDy=0;exitPerimeter=0;entryX=0;entryY=0.577;entryDx=0;entryDy=0;entryPerimeter=0;strokeColor=#00FF00;" edge="1" parent="1" source="tQie9-XVmVDXD76uz_uQ-3" target="tQie9-XVmVDXD76uz_uQ-36">
          <mxGeometry width="50" height="50" relative="1" as="geometry">
            <mxPoint x="740" y="240" as="sourcePoint" />
            <mxPoint x="790" y="190" as="targetPoint" />
          </mxGeometry>
        </mxCell>
        <mxCell id="tQie9-XVmVDXD76uz_uQ-44" value="" style="endArrow=classic;html=1;rounded=0;exitX=-0.018;exitY=0.794;exitDx=0;exitDy=0;exitPerimeter=0;strokeColor=#3399FF;" edge="1" parent="1" source="tQie9-XVmVDXD76uz_uQ-3" target="tQie9-XVmVDXD76uz_uQ-6">
          <mxGeometry width="50" height="50" relative="1" as="geometry">
            <mxPoint x="740" y="240" as="sourcePoint" />
            <mxPoint x="790" y="190" as="targetPoint" />
            <Array as="points">
              <mxPoint x="140" y="310" />
            </Array>
          </mxGeometry>
        </mxCell>
        <mxCell id="tQie9-XVmVDXD76uz_uQ-47" value="" style="shape=image;html=1;verticalAlign=top;verticalLabelPosition=bottom;labelBackgroundColor=#ffffff;imageAspect=0;aspect=fixed;image=https://cdn2.iconfinder.com/data/icons/perqui/48/ms_project.png" vertex="1" parent="1">
          <mxGeometry x="320" y="-55" width="60" height="60" as="geometry" />
        </mxCell>
        <mxCell id="tQie9-XVmVDXD76uz_uQ-49" value="" style="endArrow=classic;html=1;rounded=0;entryX=0.75;entryY=1;entryDx=0;entryDy=0;exitX=0.371;exitY=-0.018;exitDx=0;exitDy=0;exitPerimeter=0;strokeColor=#00FF00;" edge="1" parent="1" source="tQie9-XVmVDXD76uz_uQ-3" target="tQie9-XVmVDXD76uz_uQ-47">
          <mxGeometry width="50" height="50" relative="1" as="geometry">
            <mxPoint x="740" y="240" as="sourcePoint" />
            <mxPoint x="790" y="190" as="targetPoint" />
          </mxGeometry>
        </mxCell>
        <mxCell id="tQie9-XVmVDXD76uz_uQ-50" value="" style="endArrow=classic;html=1;rounded=0;exitX=0.25;exitY=1;exitDx=0;exitDy=0;entryX=0.135;entryY=-0.018;entryDx=0;entryDy=0;entryPerimeter=0;strokeColor=#3399FF;" edge="1" parent="1" source="tQie9-XVmVDXD76uz_uQ-47" target="tQie9-XVmVDXD76uz_uQ-3">
          <mxGeometry width="50" height="50" relative="1" as="geometry">
            <mxPoint x="740" y="240" as="sourcePoint" />
            <mxPoint x="790" y="190" as="targetPoint" />
          </mxGeometry>
        </mxCell>
      </root>
    </mxGraphModel>
  </diagram>
</mxfile>
